<svg width="46" height="46" viewBox="0 0 46 46" fill="none" xmlns="http://www.w3.org/2000/svg">
<path d="M14.1965 0.908813C6.86604 0.908813 0.901001 6.87385 0.901001 14.2043V32.6134C0.901001 39.9438 6.86604 45.9088 14.1965 45.9088H32.6055C39.936 45.9088 45.901 39.9438 45.901 32.6134V14.2043C45.901 6.87385 39.936 0.908813 32.6055 0.908813H14.1965ZM14.1965 2.95427H32.6055C38.8304 2.95427 43.8555 7.97945 43.8555 14.2043V32.6134C43.8555 38.8382 38.8304 43.8634 32.6055 43.8634H14.1965C7.97164 43.8634 2.94646 38.8382 2.94646 32.6134V14.2043C2.94646 7.97945 7.97164 2.95427 14.1965 2.95427ZM35.6737 9.09063C35.1312 9.09063 34.611 9.30613 34.2274 9.68973C33.8438 10.0733 33.6283 10.5936 33.6283 11.1361C33.6283 11.6786 33.8438 12.1988 34.2274 12.5824C34.611 12.966 35.1312 13.1815 35.6737 13.1815C36.2162 13.1815 36.7365 12.966 37.1201 12.5824C37.5037 12.1988 37.7192 11.6786 37.7192 11.1361C37.7192 10.5936 37.5037 10.0733 37.1201 9.68973C36.7365 9.30613 36.2162 9.09063 35.6737 9.09063ZM23.401 12.1588C17.1999 12.1588 12.151 17.2077 12.151 23.4088C12.151 29.6099 17.1999 34.6588 23.401 34.6588C29.6021 34.6588 34.651 29.6099 34.651 23.4088C34.651 17.2077 29.6021 12.1588 23.401 12.1588ZM23.401 14.2043C28.4966 14.2043 32.6055 18.3132 32.6055 23.4088C32.6055 28.5045 28.4966 32.6134 23.401 32.6134C18.3054 32.6134 14.1965 28.5045 14.1965 23.4088C14.1965 18.3132 18.3054 14.2043 23.401 14.2043Z" fill="black"/>
</svg>
