<svg width="46" height="46" viewBox="0 0 46 46" fill="none" xmlns="http://www.w3.org/2000/svg">
<path d="M40.5439 0.908813H6.25814C3.301 0.908813 0.901001 3.30881 0.901001 6.26596V40.5517C0.901001 43.5088 3.301 45.9088 6.25814 45.9088H40.5439C43.501 45.9088 45.901 43.5088 45.901 40.5517V6.26596C45.901 3.30881 43.501 0.908813 40.5439 0.908813ZM14.8296 18.0517V38.4088H8.401V18.0517H14.8296ZM8.401 12.1267C8.401 10.6267 9.68672 9.48024 11.6153 9.48024C13.5439 9.48024 14.7546 10.6267 14.8296 12.1267C14.8296 13.6267 13.6296 14.8374 11.6153 14.8374C9.68672 14.8374 8.401 13.6267 8.401 12.1267ZM38.401 38.4088H31.9724C31.9724 38.4088 31.9724 28.4874 31.9724 27.6945C31.9724 25.5517 30.901 23.4088 28.2224 23.366H28.1367C25.5439 23.366 24.4724 25.5731 24.4724 27.6945C24.4724 28.6695 24.4724 38.4088 24.4724 38.4088H18.0439V18.0517H24.4724V20.7945C24.4724 20.7945 26.5403 18.0517 30.6974 18.0517C34.951 18.0517 38.401 20.9767 38.401 26.9017V38.4088Z" fill="black"/>
</svg>
