<svg width="46" height="46" viewBox="0 0 46 46" fill="none" xmlns="http://www.w3.org/2000/svg">
<path d="M8.401 0.908813C4.27136 0.908813 0.901001 4.27917 0.901001 8.40881V38.4088C0.901001 42.5385 4.27136 45.9088 8.401 45.9088H38.401C42.5306 45.9088 45.901 42.5385 45.901 38.4088V8.40881C45.901 4.27917 42.5306 0.908813 38.401 0.908813H8.401ZM8.401 3.05167H38.401C41.3728 3.05167 43.7581 5.43703 43.7581 8.40881V38.4088C43.7581 41.3806 41.3728 43.766 38.401 43.766H8.401C5.42922 43.766 3.04386 41.3806 3.04386 38.4088V8.40881C3.04386 5.43703 5.42922 3.05167 8.401 3.05167ZM10.6359 10.5517L20.5174 24.5912L10.5439 36.266H13.2224L21.7269 26.3092L28.733 36.266H37.2375L26.3893 20.8516L35.1867 10.5517H32.5081L25.1797 19.1336L19.1404 10.5517H10.6359ZM14.7375 12.6945H18.0208L33.1359 34.1231H29.8526L14.7375 12.6945Z" fill="black"/>
</svg>
